
<svg width="160" height="50" viewBox="0 0 160 50" fill="none" xmlns="http://www.w3.org/2000/svg">
  <rect width="50" height="50" rx="25" fill="#1F75B4"/>
  <path d="M25 15C19.477 15 15 19.477 15 25C15 30.523 19.477 35 25 35C30.523 35 35 30.523 35 25C35 19.477 30.523 15 25 15ZM25 33C20.589 33 17 29.411 17 25C17 20.589 20.589 17 25 17C29.411 17 33 20.589 33 25C33 29.411 29.411 33 25 33Z" fill="white"/>
  <path d="M25 21C23.895 21 23 21.895 23 23C23 24.105 23.895 25 25 25C26.105 25 27 24.105 27 23C27 21.895 26.105 21 25 21Z" fill="white"/>
  <path d="M25 25C21.686 25 19 27.686 19 31H21C21 28.791 22.791 27 25 27C27.209 27 29 28.791 29 31H31C31 27.686 28.314 25 25 25Z" fill="white"/>
  <path d="M61.5 20.18H65.38V34H61.5V20.18ZM63.44 18.46C62.86 18.46 62.38 18.28 62 17.92C61.62 17.56 61.43 17.11 61.43 16.58C61.43 16.05 61.62 15.61 62 15.26C62.38 14.9 62.86 14.72 63.44 14.72C64.02 14.72 64.5 14.89 64.88 15.24C65.26 15.58 65.45 16.01 65.45 16.54C65.45 17.09 65.26 17.55 64.88 17.92C64.51 18.28 64.02 18.46 63.44 18.46Z" fill="#1F75B4"/>
  <path d="M69.1013 25.12C69.1013 22.97 69.6613 21.29 70.7813 20.08C71.9213 18.87 73.4313 18.26 75.3113 18.26C77.1913 18.26 78.6613 18.87 79.7213 20.08C80.8013 21.28 81.3413 22.96 81.3413 25.12C81.3413 27.29 80.8013 28.98 79.7213 30.19C78.6413 31.39 77.1713 32 75.3113 32C73.4313 32 71.9213 31.39 70.7813 30.18C69.6613 28.97 69.1013 27.28 69.1013 25.12ZM77.5513 25.12C77.5513 24.01 77.3513 23.17 76.9513 22.6C76.5513 22.03 76.0013 21.75 75.3013 21.75C74.6013 21.75 74.0513 22.03 73.6513 22.6C73.2513 23.17 73.0513 24.01 73.0513 25.12C73.0513 26.24 73.2513 27.09 73.6513 27.67C74.0513 28.25 74.6013 28.54 75.3013 28.54C76.0013 28.54 76.5513 28.25 76.9513 27.67C77.3513 27.09 77.5513 26.24 77.5513 25.12Z" fill="#1F75B4"/>
  <path d="M86.0625 27.15C86.0625 27.88 86.2425 28.43 86.6025 28.8C86.9625 29.17 87.4225 29.35 87.9825 29.35C88.5425 29.35 88.9925 29.17 89.3325 28.8C89.6725 28.43 89.8425 27.88 89.8425 27.15V20.18H93.7225V27.15C93.7225 29 93.1625 30.44 92.0425 31.47C90.9225 32.49 89.5525 33 87.9325 33C86.3125 33 84.9425 32.49 83.8225 31.47C82.7025 30.44 82.1425 29 82.1425 27.15V20.18H86.0625V27.15Z" fill="#1F75B4"/>
  <path d="M102.992 18.26C104.192 18.26 105.252 18.5 106.172 18.98C107.092 19.46 107.802 20.16 108.302 21.08C108.802 22 109.052 23.09 109.052 24.35C109.052 25.58 108.802 26.65 108.302 27.57C107.802 28.48 107.092 29.17 106.172 29.65C105.252 30.13 104.192 30.37 102.992 30.37H101.112V34H97.2316V18.26H102.992ZM102.812 26.86C103.592 26.86 104.192 26.66 104.612 26.26C105.032 25.86 105.242 25.22 105.242 24.34C105.242 23.46 105.032 22.83 104.612 22.43C104.192 22.03 103.592 21.83 102.812 21.83H101.112V26.86H102.812Z" fill="#1F75B4"/>
  <path d="M110.244 18.26H114.364L117.674 27.05H117.734L121.044 18.26H125.164L119.524 34H115.884L110.244 18.26Z" fill="#1F75B4"/>
  <path d="M127.91 34V20.18H131.79V34H127.91ZM129.85 18.46C129.27 18.46 128.79 18.28 128.41 17.92C128.03 17.56 127.84 17.11 127.84 16.58C127.84 16.05 128.03 15.61 128.41 15.26C128.79 14.9 129.27 14.72 129.85 14.72C130.43 14.72 130.91 14.89 131.29 15.24C131.67 15.58 131.86 16.01 131.86 16.54C131.86 17.09 131.67 17.55 131.29 17.92C130.91 18.28 130.43 18.46 129.85 18.46Z" fill="#1F75B4"/>
  <path d="M139.413 20.18H143.303V22.67H143.363C143.603 21.84 144.013 21.21 144.593 20.78C145.173 20.35 145.853 20.14 146.633 20.14C146.913 20.14 147.203 20.17 147.503 20.23V23.8C147.103 23.7 146.673 23.65 146.213 23.65C145.273 23.65 144.553 23.9 144.053 24.4C143.553 24.9 143.303 25.65 143.303 26.65V34H139.413V20.18Z" fill="#1F75B4"/>
  <path d="M149.412 20.18H153.302V34H149.412V20.18ZM151.352 18.46C150.772 18.46 150.292 18.28 149.912 17.92C149.532 17.56 149.342 17.11 149.342 16.58C149.342 16.05 149.532 15.61 149.912 15.26C150.292 14.9 150.772 14.72 151.352 14.72C151.932 14.72 152.412 14.89 152.792 15.24C153.172 15.58 153.362 16.01 153.362 16.54C153.362 17.09 153.172 17.55 152.792 17.92C152.422 18.28 151.932 18.46 151.352 18.46Z" fill="#1F75B4"/>
  <path d="M156.094 34V18.26H159.984V34H156.094Z" fill="#1F75B4"/>
</svg>
